<?xml version="1.0" encoding="UTF-8"?>
<svg id="Ebene_1" xmlns="http://www.w3.org/2000/svg" version="1.1" viewBox="0 0 32 32">
  <!-- Generator: Adobe Illustrator 29.8.2, SVG Export Plug-In . SVG Version: 2.1.1 Build 3)  -->
  <defs>
    <style>
      .st0 {
        fill: #fff;
      }

      .st1 {
        fill: #a4c849;
      }

      .st2 {
        fill: #2c67aa;
      }
    </style>
  </defs>
  <g>
    <path d="M20.55,18.04c-1.85-.89-3.97-1.62-5.95-2.15-.93-.25-1.91-.48-2.85-.66-1.58-.3-3.71-.7-4.72.88-.74,1.15-2.11,5.95-2.46,7.49-.62,2.69,1.54,3.49,3.63,4.42,2.64,1.16,5.59,2.05,8.44,2.45,1.97.28,3.81.54,4.67-1.65.7-1.78,1.72-5.09,2.11-6.95.46-2.21-1.15-3.01-2.87-3.84Z"/>
    <path class="st2" d="M31.97,16C31.97,7.18,24.82.03,16,.03S.03,7.18.03,16c0,1.42.19,2.8.54,4.12.2-1.01.53-2.11.74-2.63.51-1.25,1.44-2.15,2.86-1.77l-2.28,7.48c-.06,0-.11-.02-.17-.04.21.42.43.82.68,1.22.09-1.6,1.8-7.01,2.46-8.62,1.67-4.08,7.98-3.81,11.49-2.86l.74-2.5c0-.21-.33-.37-.45-.56-1.42-2.35,1.82-4.34,3.29-2.38,1.08,1.45.04,3.1-1.6,3.35l-.73,2.36c.05.15,1.51.66,1.83.82,2.76,1.36,6.87,4.28,6.11,7.84-.45,2.13-1.67,6.11-2.48,8.12-.07.17-.15.33-.23.49.32-.15.62-.31.93-.48l2.29-7.51c.19-.18.45.06.64.2.55.42.9,1.05.93,1.74.02.55-.4,2.17-.83,3.39,3.18-2.92,5.18-7.11,5.18-11.77Z"/>
    <path class="st0" d="M25.55,21.82c.76-3.56-3.34-6.47-6.11-7.84-.31-.15-1.78-.67-1.83-.82l.73-2.36c1.64-.26,2.69-1.91,1.6-3.35-1.47-1.96-4.72.03-3.29,2.38.12.2.45.35.45.56l-.74,2.5c-3.52-.95-9.83-1.23-11.49,2.86-.66,1.61-2.37,7.02-2.46,8.62,2.81,4.56,7.85,7.6,13.6,7.6,2.45,0,4.76-.55,6.83-1.53.09-.16.17-.32.23-.49.81-2.02,2.02-6,2.48-8.12ZM16.64,30.47c-2.85-.4-5.8-1.29-8.44-2.45-2.1-.93-4.25-1.73-3.63-4.42.35-1.53,1.72-6.33,2.46-7.49,1.02-1.58,3.14-1.18,4.72-.88.95.18,1.92.41,2.85.66,1.98.53,4.1,1.26,5.95,2.15,1.73.83,3.34,1.62,2.87,3.84-.39,1.86-1.41,5.17-2.11,6.95-.86,2.19-2.7,1.92-4.67,1.65Z"/>
    <path class="st0" d="M26.69,22.64c-.18-.14-.44-.38-.64-.2l-2.29,7.51c1.09-.61,2.11-1.34,3.03-2.18.43-1.22.85-2.84.83-3.39-.03-.69-.38-1.33-.93-1.74Z"/>
    <path class="st0" d="M4.17,15.71c-1.42-.38-2.35.52-2.86,1.77-.21.52-.55,1.63-.74,2.63.28,1.06.67,2.07,1.15,3.04.06.01.11.03.17.04l2.28-7.48Z"/>
  </g>
  <path class="st1" d="M14.6,15.89c1.98.53,4.1,1.26,5.95,2.15,1.73.83,3.34,1.62,2.87,3.84-.39,1.86-1.41,5.17-2.11,6.95-.86,2.19-2.7,1.92-4.67,1.65-2.85-.4-5.8-1.29-8.44-2.45-2.1-.93-4.25-1.73-3.63-4.42.35-1.53,1.72-6.33,2.46-7.49,1.02-1.58,3.14-1.18,4.72-.88.95.18,1.92.41,2.85.66ZM10.3,19.24c-1.54-.11-3.14,4.53-.81,4.86,1.7.24,3.27-4.68.81-4.86ZM18.31,21.69c-1.52-.07-2.94,4.22-1.15,4.82,1.69.57,2.78-2.6,2.35-3.89-.19-.57-.58-.9-1.2-.93Z"/>
  <path class="st0" d="M18.31,21.69c.62.03,1.01.36,1.2.93.43,1.29-.65,4.45-2.35,3.89-1.79-.6-.37-4.88,1.15-4.82Z"/>
  <path class="st0" d="M10.3,19.24c2.46.17.89,5.1-.81,4.86-2.33-.33-.73-4.97.81-4.86Z"/>
</svg>