<?xml version="1.0" encoding="UTF-8"?>
<svg id="Ebene_1" xmlns="http://www.w3.org/2000/svg" version="1.1" viewBox="0 0 81.27 44.77">
  <!-- Generator: Adobe Illustrator 29.8.2, SVG Export Plug-In . SVG Version: 2.1.1 Build 3)  -->
  <defs>
    <style>
      .st0 {
        fill: #fff;
      }

      .st1 {
        fill: #a4c849;
      }

      .st2 {
        fill: #2c67aa;
      }
    </style>
  </defs>
  <g>
    <path class="st0" d="M50.73,29.94c.98.28,1.88-.02,2.45-.85.46-.67,1.45-3.92,1.41-4.74-.03-.69-.38-1.33-.93-1.74-.18-.14-.44-.38-.64-.2l-2.3,7.53ZM31.15,15.68c-1.42-.38-2.35.52-2.86,1.77-.37.89-1.08,3.49-.87,4.37.16.66.76,1.25,1.44,1.33l2.28-7.48Z"/>
    <g>
      <path d="M47.52,18.01c-1.85-.89-3.97-1.62-5.95-2.15-.93-.25-1.91-.48-2.85-.66-1.58-.3-3.71-.7-4.72.88-.74,1.15-2.11,5.95-2.46,7.49-.62,2.69,1.54,3.49,3.63,4.42,2.64,1.16,5.59,2.05,8.44,2.45,1.97.28,3.81.54,4.67-1.65.7-1.78,1.72-5.09,2.11-6.95.46-2.21-1.15-3.01-2.87-3.84Z"/>
      <path class="st2" d="M58.94,15.97c0-8.82-7.15-15.97-15.97-15.97s-15.97,7.15-15.97,15.97c0,1.42.19,2.8.54,4.12.2-1.01.53-2.11.74-2.63.51-1.25,1.44-2.15,2.86-1.77l-2.28,7.48c-.06,0-.11-.02-.17-.04.21.42.43.82.68,1.22.09-1.6,1.8-7.01,2.46-8.62,1.67-4.08,7.98-3.81,11.49-2.86l.74-2.5c0-.21-.33-.37-.45-.56-1.42-2.35,1.82-4.34,3.29-2.38,1.08,1.45.04,3.1-1.6,3.35l-.73,2.36c.05.15,1.51.66,1.83.82,2.76,1.36,6.87,4.28,6.11,7.84-.45,2.13-1.67,6.11-2.48,8.12-.07.17-.15.33-.23.49.32-.15.62-.31.93-.48l2.29-7.51c.19-.18.45.06.64.2.55.42.9,1.05.93,1.74.02.55-.4,2.17-.83,3.39,3.18-2.92,5.18-7.11,5.18-11.77Z"/>
      <path class="st0" d="M52.52,21.79c.76-3.56-3.34-6.47-6.11-7.84-.31-.15-1.78-.67-1.83-.82l.73-2.36c1.64-.26,2.69-1.91,1.6-3.35-1.47-1.96-4.72.03-3.29,2.38.12.2.45.35.45.56l-.74,2.5c-3.52-.95-9.83-1.23-11.49,2.86-.66,1.61-2.37,7.02-2.46,8.62,2.81,4.56,7.85,7.6,13.6,7.6,2.45,0,4.76-.55,6.83-1.53.09-.16.17-.32.23-.49.81-2.02,2.02-6,2.48-8.12ZM43.61,30.44c-2.85-.4-5.8-1.29-8.44-2.45-2.1-.93-4.25-1.73-3.63-4.42.35-1.53,1.72-6.33,2.46-7.49,1.02-1.58,3.14-1.18,4.72-.88.95.18,1.92.41,2.85.66,1.98.53,4.1,1.26,5.95,2.15,1.73.83,3.34,1.62,2.87,3.84-.39,1.86-1.41,5.17-2.11,6.95-.86,2.19-2.7,1.92-4.67,1.65Z"/>
      <path class="st0" d="M53.66,22.61c-.18-.14-.44-.38-.64-.2l-2.29,7.51c1.09-.61,2.11-1.34,3.03-2.18.43-1.22.85-2.84.83-3.39-.03-.69-.38-1.33-.93-1.74Z"/>
      <path class="st0" d="M31.15,15.68c-1.42-.38-2.35.52-2.86,1.77-.21.52-.55,1.63-.74,2.63.28,1.06.67,2.07,1.15,3.04.06.01.11.03.17.04l2.28-7.48Z"/>
    </g>
    <path class="st1" d="M41.57,15.86c1.98.53,4.1,1.26,5.95,2.15,1.73.83,3.34,1.62,2.87,3.84-.39,1.86-1.41,5.17-2.11,6.95-.86,2.19-2.7,1.92-4.67,1.65-2.85-.4-5.8-1.29-8.44-2.45-2.1-.93-4.25-1.73-3.63-4.42.35-1.53,1.72-6.33,2.46-7.49,1.02-1.58,3.14-1.18,4.72-.88.95.18,1.92.41,2.85.66ZM37.27,19.21c-1.54-.11-3.14,4.53-.81,4.86,1.7.24,3.27-4.68.81-4.86ZM45.29,21.66c-1.52-.07-2.94,4.22-1.15,4.82,1.69.57,2.78-2.6,2.35-3.89-.19-.57-.58-.9-1.2-.93Z"/>
    <path class="st0" d="M45.29,21.66c.62.03,1.01.36,1.2.93.43,1.29-.65,4.45-2.35,3.89-1.79-.6-.37-4.88,1.15-4.82Z"/>
    <path class="st0" d="M37.27,19.21c2.46.17.89,5.1-.81,4.86-2.33-.33-.73-4.97.81-4.86Z"/>
  </g>
  <g>
    <path class="st2" d="M.73,43.82v-6.32c0-.53.39-.92.92-.92s.91.39.91.92v2.43h2.13v-2.43c0-.53.39-.92.92-.92s.91.39.91.92v6.32c0,.53-.39.92-.91.92s-.92-.39-.92-.92v-2.24h-2.13v2.24c0,.53-.39.92-.91.92s-.92-.39-.92-.92Z"/>
    <path class="st2" d="M7.51,42.84c0-1.2.87-2,2.3-2h1.13v-.42c0-.47-.3-.74-.77-.74-.38,0-.63.15-.82.36-.19.22-.38.51-.85.51s-.76-.31-.76-.74c0-.29.11-.52.29-.75.41-.52,1.23-.86,2.08-.86,1.5,0,2.57.79,2.57,2.41v3.39c0,.4-.34.74-.8.74s-.81-.34-.81-.81v-.16c-.11.56-.68.99-1.49.99-1.21,0-2.06-.91-2.06-1.92ZM10.94,42.27v-.13h-.77c-.67,0-.9.28-.9.64,0,.34.24.57.68.57.63,0,.99-.44.99-1.08Z"/>
    <path class="st2" d="M13.85,42.31v-3.19c0-.51.38-.88.88-.88s.88.38.88.88v3.32c0,.53.24.83.77.83s.77-.3.77-.83v-3.32c0-.51.38-.88.88-.88s.88.38.88.88v3.19c0,1.54-.98,2.46-2.54,2.46s-2.54-.92-2.54-2.46Z"/>
    <path class="st2" d="M20.19,43.96c-.28-.29-.36-.61-.36-.88,0-.45.38-.75.83-.75.33,0,.56.19.71.48.08.14.16.27.25.35.15.13.33.19.63.19.48,0,.69-.18.69-.5,0-.39-.51-.53-1.1-.73-.88-.28-1.95-.65-1.95-1.95,0-1.05.81-1.97,2.34-1.97.92,0,1.61.3,2.04.76.27.28.35.58.35.85,0,.45-.33.75-.79.75-.33,0-.59-.18-.75-.46-.07-.12-.13-.22-.22-.29-.15-.13-.34-.19-.6-.19-.39,0-.64.18-.64.48,0,.33.41.47.93.64.9.27,2.12.61,2.12,2.01,0,1.08-.73,2.01-2.41,2.01-.93,0-1.65-.35-2.08-.81Z"/>
    <path class="st2" d="M25.64,43.85v-6.74c0-.51.38-.88.88-.88s.88.38.88.88v2.24c.08-.42.59-1.14,1.55-1.14,1.06,0,1.79.74,1.79,2.07v3.57c0,.52-.38.9-.88.9s-.88-.38-.88-.9v-3.25c0-.52-.29-.85-.75-.85-.57,0-.82.41-.82.99v3.11c0,.52-.38.9-.88.9s-.88-.38-.88-.9Z"/>
    <path class="st2" d="M31.62,42.84c0-1.2.87-2,2.3-2h1.13v-.42c0-.47-.3-.74-.77-.74-.38,0-.63.15-.82.36-.19.22-.38.51-.85.51s-.76-.31-.76-.74c0-.29.11-.52.29-.75.41-.52,1.23-.86,2.08-.86,1.5,0,2.57.79,2.57,2.41v3.39c0,.4-.34.74-.8.74s-.81-.34-.81-.81v-.16c-.11.56-.68.99-1.49.99-1.21,0-2.06-.91-2.06-1.92ZM35.04,42.27v-.13h-.77c-.67,0-.9.28-.9.64,0,.34.24.57.68.57.63,0,.99-.44.99-1.08Z"/>
    <path class="st2" d="M37.99,43.85v-6.73c0-.52.38-.9.9-.9s.88.38.88.9v6.73c0,.52-.38.9-.88.9s-.9-.38-.9-.9Z"/>
    <path class="st2" d="M40.99,42.4v-4.69c0-.48.39-.88.88-.88s.87.4.87.88v.57h2.11c.41,0,.75.34.75.75s-.34.75-.75.75h-2.11v2.72c0,.53.18.77.64.77s.67-.25.67-.77v-.7c0-.45.36-.82.82-.82s.81.38.81.82v.64c0,1.51-.82,2.33-2.3,2.33s-2.4-.83-2.4-2.37Z"/>
    <path class="st2" d="M46.86,43.96c-.28-.29-.36-.61-.36-.88,0-.45.38-.75.83-.75.33,0,.56.19.71.48.08.14.16.27.25.35.14.13.33.19.63.19.48,0,.69-.18.69-.5,0-.39-.51-.53-1.1-.73-.88-.28-1.95-.65-1.95-1.95,0-1.05.81-1.97,2.33-1.97.92,0,1.61.3,2.04.76.27.28.35.58.35.85,0,.45-.33.75-.79.75-.33,0-.59-.18-.75-.46-.07-.12-.13-.22-.22-.29-.15-.13-.34-.19-.61-.19-.39,0-.64.18-.64.48,0,.33.41.47.93.64.9.27,2.12.61,2.12,2.01,0,1.08-.73,2.01-2.41,2.01-.93,0-1.65-.35-2.08-.81Z"/>
    <path class="st2" d="M52.32,43.85v-6.74c0-.51.38-.88.88-.88s.88.38.88.88v2.24c.08-.42.59-1.14,1.55-1.14,1.06,0,1.79.74,1.79,2.07v3.57c0,.52-.38.9-.88.9s-.88-.38-.88-.9v-3.25c0-.52-.29-.85-.75-.85-.57,0-.82.41-.82.99v3.11c0,.52-.38.9-.88.9s-.88-.38-.88-.9Z"/>
    <path class="st2" d="M58.5,42.31v-1.65c0-1.54.94-2.46,2.54-2.46s2.54.87,2.54,2.46v.14c0,.75-.42,1.13-1.15,1.13h-2.23v.54c0,.53.31.83.93.83.39,0,.7-.21.86-.52s.39-.5.75-.5c.39,0,.76.28.76.75,0,.36-.18.68-.36.9-.41.5-1.12.82-2.01.82-1.66,0-2.64-.92-2.64-2.46ZM60.2,40.7h1.67v-.21c0-.53-.28-.83-.83-.83s-.83.3-.83.83v.21Z"/>
    <path class="st2" d="M64.63,43.85v-6.73c0-.52.38-.9.9-.9s.88.38.88.9v6.73c0,.52-.38.9-.88.9s-.9-.38-.9-.9Z"/>
    <path class="st2" d="M67.91,43.79v-4.02h-.07c-.46,0-.8-.32-.8-.75s.34-.75.8-.75h.07c.01-1.33.87-2.07,2.04-2.07h.31c.46,0,.79.3.79.73,0,.4-.28.7-.67.7h-.17c-.39,0-.54.28-.54.64h.54c.46,0,.8.31.8.75s-.34.75-.8.75h-.54v4.02c0,.56-.38.96-.88.96s-.88-.4-.88-.96Z"/>
    <path class="st2" d="M71.42,42.31v-1.65c0-1.54.94-2.46,2.54-2.46s2.54.87,2.54,2.46v.14c0,.75-.42,1.13-1.15,1.13h-2.23v.54c0,.53.32.83.93.83.39,0,.7-.21.86-.52s.39-.5.75-.5c.39,0,.76.28.76.75,0,.36-.18.68-.36.9-.41.5-1.12.82-2.01.82-1.66,0-2.64-.92-2.64-2.46ZM73.12,40.7h1.67v-.21c0-.53-.28-.83-.83-.83s-.83.3-.83.83v.21Z"/>
    <path class="st2" d="M77.55,43.85v-4.72c0-.52.38-.9.89-.9s.88.38.88.9v.46c.1-.77.58-1.34,1.12-1.34s.82.34.82.8c0,.51-.34.87-.83.87-.74,0-1.11.35-1.11,1.21v2.72c0,.52-.38.9-.88.9s-.89-.38-.89-.9Z"/>
  </g>
</svg>